<mxfile host="65bd71144e">
    <diagram id="GYhyZ-raUVNj0wQR4c2P" name="Page-1">
        <mxGraphModel dx="592" dy="804" grid="1" gridSize="10" guides="1" tooltips="1" connect="1" arrows="1" fold="1" page="1" pageScale="1" pageWidth="1180" pageHeight="350" math="0" shadow="0">
            <root>
                <mxCell id="0"/>
                <mxCell id="1" parent="0"/>
                <mxCell id="telescope:group" value="" style="group" parent="1" vertex="1" connectable="0">
                    <mxGeometry x="950" y="20" width="180" height="120" as="geometry"/>
                </mxCell>
                <mxCell id="telescope" value="telescope" style="rounded=0;whiteSpace=wrap;html=1;" parent="telescope:group" vertex="1">
                    <mxGeometry width="180" height="120" as="geometry"/>
                </mxCell>
                <mxCell id="telescope:out" value="out" style="rounded=0;whiteSpace=wrap;html=1;strokeColor=#FF0000;" parent="telescope:group" vertex="1">
                    <mxGeometry y="80" width="80" height="40" as="geometry"/>
                </mxCell>
                <mxCell id="source:group" value="" style="group" parent="1" vertex="1" connectable="0">
                    <mxGeometry x="950" y="200" width="180" height="120" as="geometry"/>
                </mxCell>
                <mxCell id="source" value="source" style="rounded=0;whiteSpace=wrap;html=1;" parent="source:group" vertex="1">
                    <mxGeometry width="180" height="120" as="geometry"/>
                </mxCell>
                <mxCell id="source:out" value="out" style="rounded=0;whiteSpace=wrap;html=1;strokeColor=#FF0000;" parent="source:group" vertex="1">
                    <mxGeometry y="80" width="80" height="40" as="geometry"/>
                </mxCell>
                <mxCell id="fwtelsim:group" value="" style="group" parent="1" vertex="1" connectable="0">
                    <mxGeometry x="650" y="200" width="180" height="120" as="geometry"/>
                </mxCell>
                <mxCell id="fwtelsim" value="fwtelsim" style="rounded=0;whiteSpace=wrap;html=1;" parent="fwtelsim:group" vertex="1">
                    <mxGeometry width="180" height="120" as="geometry"/>
                </mxCell>
                <mxCell id="fwtelsim:in" value="in" style="rounded=0;whiteSpace=wrap;html=1;strokeColor=#FF0000;" parent="fwtelsim:group" vertex="1">
                    <mxGeometry x="110" y="80" width="70" height="40" as="geometry"/>
                </mxCell>
                <mxCell id="fwtelsim:out" value="out" style="rounded=0;whiteSpace=wrap;html=1;strokeColor=#FF0000;" parent="fwtelsim:group" vertex="1">
                    <mxGeometry y="80" width="70" height="40" as="geometry"/>
                </mxCell>
                <mxCell id="pickoff:group" value="" style="group" parent="1" vertex="1" connectable="0">
                    <mxGeometry x="350" y="200" width="180" height="120" as="geometry"/>
                </mxCell>
                <mxCell id="pickoff" value="pickoff" style="rounded=0;whiteSpace=wrap;html=1;" parent="pickoff:group" vertex="1">
                    <mxGeometry width="180" height="120" as="geometry"/>
                </mxCell>
                <mxCell id="pickoff:tel" value="tel" style="rounded=0;inwhiteSpace=wrap;html=1;strokeColor=#FF0000;" parent="pickoff:group" vertex="1">
                    <mxGeometry x="110" width="70" height="40" as="geometry"/>
                </mxCell>
                <mxCell id="pickoff:lab" value="lab" style="rounded=0;whiteSpace=wrap;html=1;strokeColor=#FF0000;" parent="pickoff:group" vertex="1">
                    <mxGeometry x="110" y="80" width="70" height="40" as="geometry"/>
                </mxCell>
                <mxCell id="pickoff:out" value="out" style="rounded=0;whiteSpace=wrap;html=1;strokeColor=#FF0000;" parent="pickoff:group" vertex="1">
                    <mxGeometry y="80" width="70" height="40" as="geometry"/>
                </mxCell>
                <mxCell id="stagek:group" value="" style="group" parent="1" vertex="1" connectable="0">
                    <mxGeometry x="50" y="200" width="180" height="120" as="geometry"/>
                </mxCell>
                <mxCell id="stagek" value="stagek" style="rounded=0;whiteSpace=wrap;html=1;" parent="stagek:group" vertex="1">
                    <mxGeometry width="180" height="120" as="geometry"/>
                </mxCell>
                <mxCell id="stagek:in" value="in" style="rounded=0;whiteSpace=wrap;html=1;strokeColor=#FF0000;" parent="stagek:group" vertex="1">
                    <mxGeometry x="110" y="80" width="70" height="40" as="geometry"/>
                </mxCell>
                <mxCell id="stagek:out" value="out" style="rounded=0;whiteSpace=wrap;html=1;strokeColor=#FF0000;" parent="stagek:group" vertex="1">
                    <mxGeometry y="80" width="70" height="40" as="geometry"/>
                </mxCell>
                <mxCell id="telescope2pickoff" value="telescope2pickoff" style="edgeStyle=elbowEdgeStyle;elbow=horizontal;endArrow=classic;html=1;curved=0;rounded=0;endSize=8;startSize=8;entryX=1;entryY=0.5;entryDx=0;entryDy=0;exitX=0;exitY=0.5;exitDx=0;exitDy=0;strokeColor=#FF0000;strokeWidth=2;fontColor=#FF0000;" parent="1" source="telescope:out" target="pickoff:tel" edge="1">
                    <mxGeometry relative="1" as="geometry">
                        <Array as="points">
                            <mxPoint x="570" y="200"/>
                        </Array>
                    </mxGeometry>
                </mxCell>
                <mxCell id="source2fwtelsim" value="source2fwtelsim" style="endArrow=classic;html=1;exitX=0;exitY=0.5;exitDx=0;exitDy=0;entryX=1;entryY=0.5;entryDx=0;entryDy=0;strokeColor=#FF0000;strokeWidth=2;fontColor=#FF0000;" parent="1" source="source:out" target="fwtelsim:in" edge="1">
                    <mxGeometry relative="1" as="geometry"/>
                </mxCell>
                <mxCell id="fwtelsim2pickoff" value="fwtelsim2pickoff" style="endArrow=classic;html=1;exitX=0;exitY=0.5;exitDx=0;exitDy=0;entryX=1;entryY=0.5;entryDx=0;entryDy=0;strokeColor=#FF0000;strokeWidth=2;fontColor=#FF0000;" parent="1" source="fwtelsim:out" target="pickoff:lab" edge="1">
                    <mxGeometry relative="1" as="geometry"/>
                </mxCell>
                <mxCell id="pickoff2stagek" value="pickoff2stagek" style="endArrow=classic;html=1;exitX=0;exitY=0.5;exitDx=0;exitDy=0;entryX=1;entryY=0.5;entryDx=0;entryDy=0;strokeColor=#FF0000;strokeWidth=2;fontColor=#FF0000;" parent="1" source="pickoff:out" target="stagek:in" edge="1">
                    <mxGeometry relative="1" as="geometry"/>
                </mxCell>
            </root>
        </mxGraphModel>
    </diagram>
</mxfile>